<svg viewBox="0 0 280 100" xmlns="http://www.w3.org/2000/svg">
  <defs>
    <style>
      .orange { fill: #F7941D; }
      .navy { fill: #2E3192; }
    </style>
  </defs>
  
  <!-- O as Location Pin -->
  <path class="orange" d="M30 10c-13.8 0-25 11.2-25 25 0 11 15 30 22 38 1.5 1.7 4.5 1.7 6 0 7-8 22-27 22-38 0-13.8-11.2-25-25-25zm0 35c-5.5 0-10-4.5-10-10s4.5-10 10-10 10 4.5 10 10-4.5 10-10 10z"/>
  
  <!-- Curved line from O -->
  <path class="orange" fill="none" stroke="#F7941D" stroke-width="6" stroke-linecap="round" d="M30 73 Q30 85, 50 85"/>
  
  <!-- NE text -->
  <text x="55" y="52" font-family="Arial Black, sans-serif" font-size="38" font-weight="900" class="orange">NE</text>
  
  <!-- Arrow -->
  <g transform="translate(115, 25)">
    <rect x="0" y="12" width="35" height="8" rx="2" class="orange"/>
    <path class="navy" d="M30 16 L50 16 L50 8 L65 20 L50 32 L50 24 L30 24 Z"/>
  </g>
  
  <!-- TRIP text -->
  <text x="55" y="88" font-family="Arial Black, sans-serif" font-size="38" font-weight="900" class="navy">TRIP</text>
  
  <!-- EXPRESS text -->
  <text x="175" y="88" font-family="Arial Black, sans-serif" font-size="20" font-weight="900" class="orange">EXPRESS</text>
</svg>