<svg xmlns="http://www.w3.org/2000/svg" viewBox="0 0 500 320" fill="none">
  <defs>
    <linearGradient id="bg4" x1="0%" y1="0%" x2="100%" y2="100%">
      <stop offset="0%" style="stop-color:#111827"/>
      <stop offset="100%" style="stop-color:#0B1120"/>
    </linearGradient>
    <linearGradient id="orange4" x1="0%" y1="0%" x2="100%" y2="100%">
      <stop offset="0%" style="stop-color:#F7941D"/>
      <stop offset="100%" style="stop-color:#FFAA40"/>
    </linearGradient>
  </defs>
  
  <rect width="500" height="320" fill="url(#bg4)"/>
  
  <!-- 3D Boxes -->
  <g transform="translate(50, 120)">
    <!-- Box 1 -->
    <path d="M 0 40 L 60 10 L 120 40 L 60 70 Z" fill="#F7941D"/>
    <path d="M 0 40 L 0 90 L 60 120 L 60 70 Z" fill="#D97B0D"/>
    <path d="M 120 40 L 120 90 L 60 120 L 60 70 Z" fill="#FFAA40"/>
    
    <!-- Box 2 -->
    <g transform="translate(30, -50)">
      <path d="M 0 40 L 60 10 L 120 40 L 60 70 Z" fill="#1F2937"/>
      <path d="M 0 40 L 0 90 L 60 120 L 60 70 Z" fill="#111827"/>
      <path d="M 120 40 L 120 90 L 60 120 L 60 70 Z" fill="#374151"/>
    </g>
    
    <!-- Box 3 -->
    <g transform="translate(60, -100)">
      <path d="M 0 40 L 60 10 L 120 40 L 60 70 Z" fill="url(#orange4)"/>
      <path d="M 0 40 L 0 90 L 60 120 L 60 70 Z" fill="#D97B0D"/>
      <path d="M 120 40 L 120 90 L 60 120 L 60 70 Z" fill="#FFAA40"/>
    </g>
  </g>
  
  <!-- Contract Document -->
  <g transform="translate(260, 40)">
    <rect x="0" y="0" width="180" height="230" rx="12" fill="white"/>
    <rect x="0" y="0" width="180" height="40" rx="12" fill="url(#orange4)"/>
    <rect x="0" y="30" width="180" height="15" fill="url(#orange4)"/>
    
    <text x="30" y="28" font-family="Arial" font-size="14" font-weight="bold" fill="white">عقد شراكة</text>
    
    <!-- Lines -->
    <rect x="20" y="60" width="120" height="8" rx="4" fill="#E5E7EB"/>
    <rect x="20" y="78" width="100" height="8" rx="4" fill="#E5E7EB"/>
    <rect x="20" y="96" width="140" height="8" rx="4" fill="#E5E7EB"/>
    <rect x="20" y="114" width="90" height="8" rx="4" fill="#E5E7EB"/>
    <rect x="20" y="132" width="110" height="8" rx="4" fill="#E5E7EB"/>
    
    <!-- Checkmarks -->
    <circle cx="30" cy="165" r="10" fill="#10B981"/>
    <path d="M 25 165 L 28 168 L 36 160" stroke="white" stroke-width="2" fill="none" stroke-linecap="round"/>
    <rect x="50" y="159" width="80" height="12" rx="6" fill="#E5E7EB"/>
    
    <circle cx="30" cy="190" r="10" fill="#10B981"/>
    <path d="M 25 190 L 28 193 L 36 185" stroke="white" stroke-width="2" fill="none" stroke-linecap="round"/>
    <rect x="50" y="184" width="70" height="12" rx="6" fill="#E5E7EB"/>
    
    <!-- Signature -->
    <rect x="40" y="215" width="100" height="1" fill="#9CA3AF"/>
    <text x="70" y="228" font-family="Arial" font-size="8" fill="#9CA3AF">التوقيع</text>
  </g>
  
  <!-- Handshake Icon -->
  <g transform="translate(330, 280)">
    <circle cx="30" cy="0" r="25" fill="url(#orange4)"/>
    <path d="M 20 0 Q 30 -10 40 0" stroke="white" stroke-width="4" fill="none" stroke-linecap="round"/>
    <path d="M 22 5 L 38 5" stroke="white" stroke-width="4" stroke-linecap="round"/>
  </g>
  
  <!-- Decorative -->
  <circle cx="450" cy="50" r="20" fill="#1F2937"/>
  <circle cx="450" cy="50" r="12" fill="#F7941D" opacity="0.3"/>
  <circle cx="40" cy="280" r="15" fill="#1F2937"/>
  <circle cx="40" cy="280" r="8" fill="#F7941D" opacity="0.3"/>
</svg>
